<svg xmlns="http://www.w3.org/2000/svg" viewBox="0 0 1024 1024">
  <path d="M208 176h416c17.7 0 32 14.3 32 32s-14.3 32-32 32H208c-17.7 0-32-14.3-32-32s14.3-32 32-32zm0 224h416c17.7 0 32 14.3 32 32s-14.3 32-32 32H208c-17.7 0-32-14.3-32-32s14.3-32 32-32zm0 224h256c17.7 0 32 14.3 32 32s-14.3 32-32 32H208c-17.7 0-32-14.3-32-32s14.3-32 32-32zm528-294.4 133.6 89.1c17.8 11.8 17.8 38 0 49.8L736 558c-19.9 13.3-46.8-1-46.8-24.9V354.5c0-23.9 26.9-38.2 46.8-24.9zm0 288 133.6 89.1c17.8 11.8 17.8 38 0 49.8L736 846c-19.9 13.3-46.8-1-46.8-24.9V642.5c0-23.9 26.9-38.2 46.8-24.9z" fill="currentColor"/>
</svg>
